<svg width="26" height="26" viewBox="0 0 26 26" fill="none" xmlns="http://www.w3.org/2000/svg">
<g id="account_balance_wallet" clip-path="url(#clip0_217_48)">
<path id="Vector" d="M22.75 19.5V20.5833C22.75 21.775 21.775 22.75 20.5833 22.75H5.41667C4.21417 22.75 3.25 21.775 3.25 20.5833V5.41667C3.25 4.225 4.21417 3.25 5.41667 3.25H20.5833C21.775 3.25 22.75 4.225 22.75 5.41667V6.5H13C11.7975 6.5 10.8333 7.475 10.8333 8.66667V17.3333C10.8333 18.525 11.7975 19.5 13 19.5H22.75ZM13 17.3333H23.8333V8.66667H13V17.3333ZM17.3333 14.625C16.4342 14.625 15.7083 13.8992 15.7083 13C15.7083 12.1008 16.4342 11.375 17.3333 11.375C18.2325 11.375 18.9583 12.1008 18.9583 13C18.9583 13.8992 18.2325 14.625 17.3333 14.625Z" fill="#2481D7"/>
</g>
<defs>
<clipPath id="clip0_217_48">
<rect width="26" height="26" fill="white"/>
</clipPath>
</defs>
</svg>
