<svg width="77" height="44" viewBox="0 0 77 44" fill="none" xmlns="http://www.w3.org/2000/svg">
<path d="M0.888081 32.4866C0.855004 32.4537 0.848485 32.4052 0.873354 32.367C1.32509 31.6699 2.06826 31.1042 2.95894 30.7685C3.41792 30.5948 3.91723 30.4885 4.42981 30.452C4.94264 30.4163 5.46898 30.4559 5.9777 30.5672C6.99877 30.7881 7.91891 31.3288 8.56863 32.0319C9.22777 32.734 9.65464 33.5589 9.93061 34.3937C10.0678 34.8129 10.1556 35.2419 10.1945 35.6715C10.2131 35.8863 10.2208 36.1013 10.2162 36.3152C10.2124 36.4222 10.2114 36.529 10.2025 36.6353C10.1928 36.7427 10.182 36.8509 10.1689 36.9581C10.1071 37.3873 9.99339 37.8089 9.828 38.2109C9.66189 38.6129 9.43952 38.9929 9.17658 39.3445C8.911 39.6949 8.59567 40.0113 8.24775 40.2898C8.06981 40.4255 7.88921 40.557 7.69412 40.6703C7.59972 40.7303 7.49783 40.7812 7.39956 40.8351C7.29695 40.8833 7.19699 40.9351 7.09148 40.9773C6.88456 41.0681 6.66751 41.1381 6.45045 41.2014C6.23025 41.2571 6.00982 41.3079 5.78431 41.3329C5.67397 41.3495 5.56121 41.3534 5.45063 41.3627C5.44846 41.3629 5.44629 41.3629 5.44411 41.3632C5.33233 41.3647 5.22175 41.3725 5.11068 41.3666C4.92284 41.366 4.73644 41.3458 4.55295 41.3195C4.49428 41.3112 4.45323 41.2625 4.45903 41.2092C4.46458 41.1584 4.51166 41.1197 4.5684 41.1181C4.95399 41.1073 5.33305 41.0573 5.69039 40.9505C5.88572 40.8985 6.07259 40.8248 6.25488 40.7488C6.43427 40.665 6.61004 40.5781 6.7735 40.4735C7.10331 40.2702 7.39739 40.0261 7.65404 39.7576C7.90659 39.4849 8.12389 39.1888 8.29314 38.8736C8.63793 38.2452 8.80525 37.5541 8.80645 36.8729C8.80573 36.7875 8.80307 36.7027 8.80042 36.6172C8.79679 36.5305 8.78593 36.4444 8.77844 36.3583C8.76082 36.1863 8.73136 36.0161 8.69684 35.8478C8.62706 35.5115 8.51914 35.1842 8.37644 34.8736C8.09492 34.2494 7.63449 33.7099 7.10162 33.2995C6.83724 33.0912 6.55958 32.9083 6.27226 32.749C5.98495 32.5896 5.6899 32.4463 5.37723 32.3354C4.756 32.1076 4.0604 31.9965 3.31628 32.035C3.13061 32.045 2.94131 32.0606 2.75082 32.0893C2.55983 32.1163 2.36571 32.1513 2.17135 32.1981C1.80146 32.2805 1.4323 32.4024 1.04333 32.5422C0.999629 32.5579 0.949408 32.5479 0.917779 32.5163L0.888081 32.4866Z" fill="#2481D7"/>
<path d="M10.1197 18.9399C10.0192 18.9186 9.94606 18.8392 9.94292 18.7462C9.89342 17.1592 10.1769 15.5608 10.6677 14.0291C10.85 13.4936 11.0555 12.9629 11.2885 12.4431C11.7586 11.3938 12.3552 10.3742 13.0399 9.41732C13.2768 9.09989 13.5119 8.77747 13.7679 8.46875C14.0733 8.07544 14.4374 7.70975 14.7735 7.33536C24.7195 -2.96532 43.4291 -1.4371 51.6278 9.92999C52.3565 10.9401 52.9917 12.0037 53.5191 13.1103C56.3077 18.9688 55.8924 26.0256 51.7546 31.2162C51.6329 31.3621 51.5134 31.5078 51.3886 31.6499C51.1848 31.8956 50.9528 32.1259 50.7268 32.3544C50.6572 32.4246 50.5435 32.4435 50.4508 32.4002C50.3163 32.3548 50.2366 32.2272 50.303 32.1048C52.264 28.5039 52.9012 24.3805 52.1819 20.4363C52.1479 20.2711 52.0612 19.8498 52.0281 19.6902C51.9888 19.5336 51.8823 19.1121 51.8415 18.9503C51.7932 18.7881 51.6701 18.3744 51.6228 18.2178C51.5701 18.0646 51.427 17.6521 51.3722 17.4938C47.5619 7.02402 34.5421 1.68497 23.2276 5.76693C22.9231 5.86759 22.4984 6.04609 22.195 6.16045C21.8557 6.30155 21.5233 6.45591 21.1867 6.60289C15.9413 9.06641 11.9409 13.5995 10.448 18.8016C10.4101 18.9347 10.2563 18.9857 10.1197 18.9399Z" fill="#2481D7"/>
<path d="M22.9012 39.3371C22.9125 39.2519 22.9818 39.1827 23.0743 39.1616C24.7376 38.7833 25.9373 37.9937 26.863 37.0268C26.9854 36.9073 27.0953 36.7716 27.2099 36.6472C27.2633 36.5818 27.4007 36.4135 27.4528 36.3505C27.5009 36.2855 27.6317 36.1122 27.6822 36.0454C27.7657 35.9208 27.8901 35.7526 27.9662 35.6256L28.1021 35.4132C28.4524 34.8386 28.7448 34.2346 28.9916 33.6154C29.0473 33.4821 29.1145 33.284 29.1688 33.1477C29.2195 32.9884 29.2794 32.8333 29.3291 32.674C29.375 32.5133 29.4375 32.3585 29.4783 32.1963C29.7176 31.3864 29.911 30.5785 30.0508 29.7367C30.2232 28.7014 30.2818 27.6426 30.186 26.5983C29.9257 24.1787 28.9259 21.7439 27.082 19.9443C26.9729 19.8324 26.8012 19.6891 26.6841 19.5819C26.6095 19.5212 26.4325 19.3812 26.3596 19.3221C26.2855 19.2675 26.1024 19.1388 26.0254 19.0832C25.9499 19.0316 25.8711 18.9853 25.7939 18.9358C25.6411 18.8329 25.4769 18.7514 25.3161 18.6601C24.9882 18.4933 24.6497 18.3357 24.2933 18.222C24.028 18.1291 23.7532 18.0567 23.4748 18.0024C23.3816 17.985 23.2889 17.96 23.194 17.9504L22.9096 17.9113C22.8145 17.8952 22.7184 17.8954 22.6223 17.8863C22.5262 17.8813 22.4294 17.8676 22.3326 17.8689L22.0409 17.8646C20.8313 17.8832 19.6627 18.1811 18.582 18.7157C18.2138 18.889 17.8632 19.0966 17.5196 19.3169C17.3675 19.4165 17.1596 19.5597 17.0177 19.6674C16.8243 19.7695 16.6258 20.0998 16.3805 19.9195C16.2916 19.8474 16.2786 19.7254 16.3522 19.6404C17.7034 18.065 19.6709 16.8407 21.9004 16.5164L22.2582 16.4733C22.3777 16.4566 22.4984 16.4553 22.6191 16.4459C22.7399 16.4407 22.8611 16.4266 22.9825 16.4292L23.3476 16.4303C23.47 16.4277 23.5907 16.4411 23.7129 16.4477C24.0792 16.4696 24.4447 16.5148 24.8037 16.5868C25.2869 16.6729 25.7548 16.8131 26.2142 16.9731C26.5544 17.1012 26.8879 17.2436 27.2112 17.4032C27.3227 17.4628 27.5798 17.5963 27.6866 17.6556C27.7836 17.7132 28.0449 17.8704 28.1448 17.9309C28.3165 18.0483 28.5657 18.2065 28.7269 18.3309C30.9779 19.9917 32.4514 22.3585 33.2605 24.8451C33.53 25.6723 33.7436 26.5135 33.897 27.3651C34.6256 30.9657 33.8552 34.6231 31.0426 37.3947C30.8647 37.5615 30.6957 37.7308 30.504 37.8858C30.41 37.9646 30.3183 38.0439 30.2224 38.12C30.1181 38.1974 29.8813 38.3787 29.7779 38.4511C29.6273 38.5507 29.4633 38.6629 29.3112 38.7581C29.0925 38.8838 28.8839 39.0147 28.654 39.124C27.328 39.8043 25.7589 40.1565 24.2525 39.9478C23.8252 39.8874 23.4135 39.78 23.0303 39.6315C22.9362 39.5949 22.8787 39.508 22.891 39.4164L22.9012 39.3371Z" fill="#2481D7"/>
<path d="M1.1353 32.4879C0.935871 32.6353 0.659902 32.4177 0.795593 32.2202C1.40234 31.3299 2.21842 30.5109 3.14846 29.8433C4.49112 28.891 6.09479 28.2435 7.78948 27.9833C7.95704 27.9557 8.22118 27.9252 8.39526 27.9076C8.59735 27.8946 8.79388 27.8889 8.995 27.8804C13.3296 27.7372 16.4515 29.6765 19.0765 32.5322C21.7635 35.4404 23.9464 38.3011 28.1149 39.3649C29.2613 39.6828 30.4598 39.8498 31.6643 39.9439C37.5556 40.3948 43.8273 38.4222 47.9924 34.5727C49.5118 33.1384 50.6799 31.4239 51.2758 29.4928C51.3468 29.2671 51.716 29.3049 51.7244 29.5393C51.7543 30.3946 51.6522 31.2669 51.426 32.1198C51.221 32.9225 50.8999 33.7006 50.5116 34.4472C50.4305 34.5955 50.3508 34.7459 50.263 34.8916C47.011 40.315 40.145 43.6004 33.3921 43.9154C32.7296 43.9426 32.0746 43.9396 31.412 43.9226C29.8724 43.8685 28.329 43.6793 26.835 43.2919C23.3614 42.434 20.4599 40.4 18.3142 37.85C16.4486 35.7417 15.1443 33.3619 12.8586 31.7661C12.6355 31.6087 12.4001 31.4717 12.1608 31.3362C8.50149 29.4147 4.34722 30.0876 1.1353 32.4879Z" fill="#2481D7"/>
<path d="M76.3337 39.5915C76.3337 39.6732 76.2804 39.748 76.1971 39.7808C72.8888 41.0612 69.2918 41.5078 65.6579 41.1701C60.0861 40.6737 54.8595 38.0135 50.9274 34.4742C49.4713 33.1775 48.1127 31.7417 46.8888 30.2833C43.5994 26.4205 41.6229 22.8423 38.454 19.4343L38.3171 19.2886C38.0534 19.0151 37.7712 18.7381 37.4906 18.492C36.9725 18.0133 36.407 17.5734 35.8179 17.1904C34.7727 16.5114 33.6142 16.0172 32.3566 15.6761C32.2168 15.6397 32.0789 15.598 31.9343 15.5654L31.7327 15.516C31.6491 15.4939 31.5569 15.4436 31.476 15.426C31.4214 15.4106 31.3577 15.3895 31.3029 15.3706C31.0738 15.3373 30.8304 15.3073 30.5996 15.2862L30.1874 15.2519C30.0488 15.243 29.91 15.2393 29.7685 15.2312L29.3436 15.2267C29.2011 15.2295 29.056 15.2278 28.9104 15.2323C28.7661 15.2408 28.6183 15.2428 28.4715 15.2551C24.19 15.5365 20.3274 17.675 16.8163 20.0124C16.7434 20.06 16.6461 20.0652 16.5679 20.025L16.2265 19.8493C16.1178 19.7935 16.0785 19.6691 16.1391 19.5706C18.8567 15.0832 23.427 11.2075 29.1446 10.2183C29.7091 10.1196 30.2896 10.0472 30.863 10.0007C31.132 9.98892 31.4079 9.95718 31.6757 9.96914L31.9999 9.97588C32.3034 9.98697 32.6359 10.0039 32.9372 10.0254C51.7964 11.5728 49.2803 35.5365 71.5795 38.6516C73.0772 38.8679 74.5941 38.9855 76.1123 39.0301C76.236 39.0336 76.334 39.124 76.334 39.2353V39.5915H76.3337Z" fill="#2481D7"/>
</svg>
