<svg width="59" height="58" viewBox="0 0 59 58" fill="none" xmlns="http://www.w3.org/2000/svg">
<ellipse cx="29.4379" cy="29" rx="29.4379" ry="29" fill="#E0E3E6" fill-opacity="0.63"/>
<path d="M58.3757 29C58.3757 44.7331 45.4269 57.5 29.4379 57.5C13.4488 57.5 0.5 44.7331 0.5 29C0.5 13.2669 13.4488 0.5 29.4379 0.5C45.4269 0.5 58.3757 13.2669 58.3757 29Z" stroke="black" stroke-opacity="0.2"/>
<g clip-path="url(#clip0_43_544)">
<path d="M29.7149 12L29.4963 12.7423V34.2788L29.7149 34.4968L39.7117 28.5876L29.7149 12Z" fill="#343434"/>
<path d="M29.7148 12L19.7178 28.5876L29.7148 34.4968V24.0436V12Z" fill="#8C8C8C"/>
<path d="M29.7148 36.3895L29.5917 36.5397V44.2113L29.7148 44.5709L39.7178 30.4834L29.7148 36.3895Z" fill="#3C3C3B"/>
<path d="M29.7148 44.5709V36.3895L19.7178 30.4834L29.7148 44.5709Z" fill="#8C8C8C"/>
<path d="M29.7148 34.4968L39.7117 28.5876L29.7148 24.0435V34.4968Z" fill="#141414"/>
<path d="M19.7178 28.5876L29.7148 34.4968V24.0435L19.7178 28.5876Z" fill="#393939"/>
</g>
<defs>
<clipPath id="clip0_43_544">
<rect width="20" height="32.5711" fill="white" transform="translate(19.7178 12)"/>
</clipPath>
</defs>
</svg>
